<?xml version="1.0" encoding="iso-8859-1"?>
<!-- Generator: Adobe Illustrator 19.0.0, SVG Export Plug-In . SVG Version: 6.00 Build 0)  -->
<svg version="1.1" id="Layer_1" xmlns="http://www.w3.org/2000/svg" xmlns:xlink="http://www.w3.org/1999/xlink" x="0px" y="0px"
	 viewBox="0 0 512 512" style="enable-background:new 0 0 512 512;" xml:space="preserve">
<path style="fill:#E5E5E5;" d="M430.78,67.272C384.062,23.891,321.991,0,256,0S127.939,23.891,81.222,67.272
	C34.329,110.814,8.504,168.757,8.504,230.428c0,39.58,10.96,78.622,31.697,112.904c19.231,31.796,46.566,59.129,79.25,79.301v80.894
	c0,7.311,9.053,11.248,14.394,6.204l59.615-56.302c20.337,4.93,41.351,7.426,62.541,7.426c65.99,0,128.061-23.891,174.778-67.272
	c46.893-43.543,72.718-101.486,72.718-163.156S477.672,110.814,430.78,67.272z"/>
<path style="fill:#CCCCCC;" d="M153.588,422.635c-32.684-20.172-60.019-47.507-79.25-79.301
	c-20.736-34.284-31.697-73.325-31.697-112.905c0-61.67,25.825-119.613,72.718-163.156c42.666-39.619,98.142-62.97,157.71-66.724
	C267.413,0.192,261.723,0,256,0C190.01,0,127.939,23.891,81.222,67.272C34.329,110.814,8.504,168.757,8.504,230.428
	c0,39.58,10.96,78.622,31.697,112.904c19.231,31.796,46.566,59.129,79.25,79.301v80.894c0,7.311,9.053,11.248,14.394,6.204
	l19.743-18.647L153.588,422.635L153.588,422.635z"/>
<path style="fill:#1C74BB;" d="M442.254,165.853c-2.278-3.315-6.563-4.588-10.282-3.056l-140.195,57.728l-64.296-56.259
	c-3.527-3.086-8.883-2.751-11.999,0.753L78.932,318.637c-2.703,3.041-2.855,7.725-0.342,10.928c2.357,3.005,6.642,4.091,10.142,2.56
	l131.586-57.569l64.198,56.173c3.452,3.02,8.674,2.773,11.824-0.562l145.084-153.619
	C444.188,173.623,444.534,169.167,442.254,165.853z"/>
<path style="fill:#035FA1;" d="M431.972,162.796l-2.845,1.171L296.342,304.564c-3.15,3.335-8.372,3.582-11.824,0.562l-64.198-56.173
	L90.318,305.829l-11.384,12.807c-2.664,2.997-2.882,7.443-0.526,10.686c2.328,3.205,6.693,4.392,10.326,2.802l131.586-57.569
	l64.198,56.173c3.452,3.02,8.674,2.773,11.824-0.562l145.084-153.619c2.762-2.924,3.108-7.38,0.828-10.695
	C439.977,162.538,435.691,161.264,431.972,162.796z"/>
<g>
</g>
<g>
</g>
<g>
</g>
<g>
</g>
<g>
</g>
<g>
</g>
<g>
</g>
<g>
</g>
<g>
</g>
<g>
</g>
<g>
</g>
<g>
</g>
<g>
</g>
<g>
</g>
<g>
</g>
</svg>
